<?xml version="1.0"?>
<svg xmlns="http://www.w3.org/2000/svg" viewBox="0 0 512 512" width="512" height="512"><g><g id="_29-method" data-name="29-method"><g id="linear_color" data-name="linear color"><path d="M266,366h-6V304a10,10,0,0,0-10-10H74a42.047,42.047,0,0,0-42,42V464a42.047,42.047,0,0,0,42,42H250a10,10,0,0,0,10-10V434h6a10,10,0,0,0,10-10V376A10,10,0,0,0,266,366Zm-48,48a6.006,6.006,0,0,1-6-6V392a6.006,6.006,0,0,1,6-6h38v28Zm22,72H74a22.025,22.025,0,0,1-22-22V336a22.025,22.025,0,0,1,22-22H240v52H218a26.029,26.029,0,0,0-26,26v16a26.029,26.029,0,0,0,26,26h22Z" data-original="#000000" class="active-path" style="fill:#FFFFFF" data-old_color="#000000"/><path d="M114,362h24a6.006,6.006,0,0,1,6,6,10,10,0,0,0,20,0,26.029,26.029,0,0,0-26-26h-6v-6a10,10,0,0,0-20,0v6.063A34,34,0,0,0,114,410h16a14,14,0,0,1,0,28H107a6.006,6.006,0,0,1-6-6,10,10,0,0,0-20,0,26.029,26.029,0,0,0,26,26h5v6a10,10,0,0,0,20,0v-6.063A34,34,0,0,0,130,390H114a14,14,0,0,1,0-28Z" data-original="#000000" class="active-path" style="fill:#FFFFFF" data-old_color="#000000"/><path d="M454,105a10,10,0,0,0,10-10V80a10,10,0,0,0-4.453-8.32l-96-64a9.994,9.994,0,0,0-11.094,0l-96,64A10,10,0,0,0,252,80V95a10,10,0,0,0,10,10h6v93h-6a10,10,0,0,0,0,20H454a10,10,0,0,0,0-20h-6V105ZM358,28.019,443.473,85H272.527ZM288,106h12v92H288Zm32,0h76v92H320Zm96,92V106h12v92Z" data-original="#000000" class="active-path" style="fill:#FFFFFF" data-old_color="#000000"/><path d="M432,246a10,10,0,0,0-10,10,165.382,165.382,0,0,1-86.059,145.51l6.3-25.189a10,10,0,1,0-19.4-4.851l-11.642,46.567a10,10,0,0,0,7.479,12.176l46.809,10.671a10,10,0,0,0,4.446-19.5l-20.342-4.637A185.866,185.866,0,0,0,442,256,10,10,0,0,0,432,246Z" data-original="#000000" class="active-path" style="fill:#FFFFFF" data-old_color="#000000"/><path d="M80,266a10,10,0,0,0,10-10,165.382,165.382,0,0,1,86.059-145.51l-6.3,25.189a10,10,0,1,0,19.4,4.851l11.642-46.567a10,10,0,0,0-7.479-12.176L146.518,71.116a10,10,0,0,0-4.446,19.5l20.342,4.637A185.866,185.866,0,0,0,70,256,10,10,0,0,0,80,266Z" data-original="#000000" class="active-path" style="fill:#FFFFFF" data-old_color="#000000"/></g></g></g> </svg>
