<?xml version="1.0"?>
<svg xmlns="http://www.w3.org/2000/svg" xmlns:xlink="http://www.w3.org/1999/xlink" version="1.1" id="Capa_1" x="0px" y="0px" width="512" height="512" viewBox="0 0 81.748 81.749" style="enable-background:new 0 0 81.748 81.749;" xml:space="preserve" class=""><g><g>
	<path d="M59.098,0H22.649c-3.036,0-5.521,2.48-5.521,5.522v70.708c0,3.036,2.485,5.516,5.521,5.518h36.448   c3.036-0.002,5.522-2.481,5.522-5.518V5.522C64.62,2.48,62.134,0,59.098,0z M35.043,3.98h11.664c0.367,0,0.663,0.299,0.663,0.668   c0,0.368-0.296,0.669-0.666,0.669H35.043c-0.368,0-0.67-0.301-0.67-0.669C34.373,4.279,34.68,3.98,35.043,3.98z M40.874,78.998   c-1.522,0-2.761-1.238-2.761-2.767c0-1.521,1.236-2.765,2.761-2.765c1.525,0,2.765,1.238,2.765,2.765   C43.639,77.759,42.396,78.998,40.874,78.998z M60.774,71.535H20.971V8.757h39.808L60.774,71.535z M51.741,30.045   c5.99,5.995,5.992,15.75,0,21.747c-0.062,0.063-0.128,0.121-0.191,0.176l1.638,1.643h-5.845v-5.845l1.526,1.528   c0.063-0.059,0.135-0.114,0.196-0.178c4.523-4.523,4.523-11.876,0-16.398c-3.557-3.553-8.86-4.3-13.164-2.263l-0.002-3.437h-1.573   C40.031,24.348,47.042,25.344,51.741,30.045z M46.079,54.869l1.241,0.002c-5.682,2.617-12.641,1.604-17.317-3.07   c-5.989-5.992-5.995-15.749,0.005-21.748c0.058-0.062,0.127-0.117,0.191-0.173l-1.638-1.642h5.844v5.844l-1.527-1.525   c-0.066,0.054-0.133,0.114-0.196,0.174c-4.522,4.524-4.522,11.874,0,16.399c3.623,3.62,9.059,4.329,13.396,2.153V54.869z" data-original="#000000" class="active-path" style="fill:#FFFFFF" data-old_color="#000000"/>
</g></g> </svg>
